<svg xmlns="http://www.w3.org/2000/svg" xmlns:xlink="http://www.w3.org/1999/xlink" version="1.1" width="1000" height="1000" viewBox="0 0 1000 1000" xml:space="preserve">
<desc>Created with Fabric.js 3.5.0</desc>
<defs>
</defs>
<rect x="0" y="0" width="100%" height="100%" fill="rgba(255,255,255,0.01)"/>
<g transform="matrix(1.8724 0 0 1.8724 500.0111 500.0111)" id="592378">
<g style="" vector-effect="non-scaling-stroke">
		<g transform="matrix(1 0 0 1 -0.0009 0.0231)">
<path style="stroke: none; stroke-width: 1; stroke-dasharray: none; stroke-linecap: butt; stroke-dashoffset: 0; stroke-linejoin: miter; stroke-miterlimit: 4; is-custom-font: none; font-file-url: none; fill: rgb(101,89,162); fill-rule: nonzero; opacity: 1;" transform=" translate(-0.3741, -256.3356)" d="M 0 0 C 1.01790619 0.00215515 2.03581238 0.0043103 3.08456421 0.00653076 C 17.69363523 0.05620146 32.02575853 0.30709809 46.375 3.3125 C 47.34985352 3.51117676 48.32470703 3.70985352 49.32910156 3.91455078 C 97.7109774 14.03517194 141.69928269 35.9516877 177.375 70.3125 C 178.3640332 71.26068604 178.3640332 71.26068604 179.37304688 72.22802734 C 188.86130305 81.37247479 197.6012044 90.66984009 205.375 101.3125 C 206.23306152 102.46355017 207.09113451 103.61459177 207.94921875 104.765625 C 213.98736829 112.95680614 219.34595521 121.47054105 224.375 130.3125 C 224.73948242 130.94430176 225.10396484 131.57610352 225.47949219 132.22705078 C 247.08534998 169.97532572 256.85198095 212.74189997 256.6875 255.9375 C 256.68534485 256.95540619 256.6831897 257.97331238 256.68096924 259.02206421 C 256.63129854 273.63113523 256.38040191 287.96325853 253.375 302.3125 C 253.07698486 303.77478027 253.07698486 303.77478027 252.77294922 305.26660156 C 242.65232806 353.6484774 220.7358123 397.63678269 186.375 433.3125 C 185.74287598 433.97185547 185.11075195 434.63121094 184.45947266 435.31054688 C 175.31502521 444.79880305 166.01765991 453.5387044 155.375 461.3125 C 154.22394983 462.17056152 153.07290823 463.02863451 151.921875 463.88671875 C 143.73224019 469.92427396 135.22961724 475.30707302 126.375 480.3125 C 125.66778809 480.7146875 124.96057617 481.116875 124.23193359 481.53125 C 101.09654164 494.5566741 75.92537591 503.30551461 49.9375 508.625 C 49.21860596 508.77235596 48.49971191 508.91971191 47.7590332 509.0715332 C 33.08339502 511.86090125 18.55831162 512.66142619 3.64770508 512.62817383 C 0.70811513 512.6250221 -2.2304558 512.64854926 -5.16992188 512.67382812 C -18.54306192 512.71848737 -31.43916711 511.51301542 -44.625 509.3125 C -46.33055054 509.03031616 -46.33055054 509.03031616 -48.07055664 508.74243164 C -91.33802759 500.97044532 -132.38793216 480.98345309 -165.625 452.3125 C -166.37007813 451.67828125 -167.11515625 451.0440625 -167.8828125 450.390625 C -181.38779833 438.57948485 -194.05918743 425.82889772 -204.625 411.3125 C -205.48149066 410.16255169 -206.33826433 409.01281411 -207.1953125 407.86328125 C -213.23534209 399.67315742 -218.61867614 391.16870382 -223.625 382.3125 C -224.0271875 381.60528809 -224.429375 380.89807617 -224.84375 380.16943359 C -237.8691741 357.03404164 -246.61801461 331.86287591 -251.9375 305.875 C -252.08485596 305.15610596 -252.23221191 304.43721191 -252.3840332 303.6965332 C -255.35789088 288.05024391 -255.99800362 272.57681954 -255.9375 256.6875 C -255.93534485 255.66959381 -255.9331897 254.65168762 -255.93096924 253.60293579 C -255.88129854 238.99386477 -255.63040191 224.66174147 -252.625 210.3125 C -252.42632324 209.33764648 -252.22764648 208.36279297 -252.02294922 207.35839844 C -241.90232806 158.9765226 -219.9858123 114.98821731 -185.625 79.3125 C -184.99287598 78.65314453 -184.36075195 77.99378906 -183.70947266 77.31445312 C -174.56502521 67.82619695 -165.26765991 59.0862956 -154.625 51.3125 C -153.47394983 50.45443848 -152.32290823 49.59636549 -151.171875 48.73828125 C -142.98224019 42.70072604 -134.47961724 37.31792698 -125.625 32.3125 C -124.91778809 31.9103125 -124.21057617 31.508125 -123.48193359 31.09375 C -100.34654164 18.0683259 -75.17537591 9.31948539 -49.1875 4 C -48.46860596 3.85264404 -47.74971191 3.70528809 -47.0090332 3.5534668 C -31.36274391 0.57960912 -15.88931954 -0.06050362 0 0 Z" stroke-linecap="round"/>
</g>
		<g transform="matrix(1 0 0 1 -0.205 -8.2345)">
<path style="stroke: none; stroke-width: 1; stroke-dasharray: none; stroke-linecap: butt; stroke-dashoffset: 0; stroke-linejoin: miter; stroke-miterlimit: 4; is-custom-font: none; font-file-url: none; fill: rgb(254,254,254); fill-rule: nonzero; opacity: 1;" transform=" translate(77.205, -121.7656)" d="M 0 0 C 0.54914063 0.37705078 1.09828125 0.75410156 1.6640625 1.14257812 C 32.43539554 22.68980304 51.35406266 55.27933616 58.54858398 91.78344727 C 59.05982971 95.42631497 59.18033129 99.00887435 59.203125 102.6796875 C 59.20882507 103.41011261 59.21452515 104.14053772 59.22039795 104.89309692 C 59.22980817 106.43783135 59.23636603 107.9825855 59.24023438 109.52734375 C 59.24982827 111.83371636 59.28084101 114.13915275 59.3125 116.4453125 C 59.41711355 130.75385464 57.22837813 143.92067187 52.375 157.4375 C 51.85341309 158.90135132 51.85341309 158.90135132 51.32128906 160.39477539 C 43.1939097 182.52031505 29.43724056 203.10838262 11 218 C 10.13890625 218.69867188 9.2778125 219.39734375 8.390625 220.1171875 C -16.24864107 239.36245208 -45.41682556 249.17218686 -76.625 249.1875 C -78.56052734 249.20586914 -78.56052734 249.20586914 -80.53515625 249.22460938 C -92.44523067 249.24260042 -103.5908338 247.63122402 -115.0625 244.5 C -115.87654297 244.28730469 -116.69058594 244.07460938 -117.52929688 243.85546875 C -123.58993253 242.23465889 -123.58993253 242.23465889 -125.88061523 240.92382812 C -129.35901012 239.40761499 -132.3210985 239.43891434 -135.92922974 240.64474487 C -138.18360623 241.57729186 -140.38952653 242.58378178 -142.59765625 243.62109375 C -143.83313957 244.18469856 -143.83313957 244.18469856 -145.09358215 244.75968933 C -146.84904538 245.56195061 -148.60220415 246.3692705 -150.35321045 247.18121338 C -153.97090291 248.85872276 -157.59947811 250.5120094 -161.2276001 252.16680908 C -163.0151034 252.9825179 -164.80201436 253.79952602 -166.58831787 254.61785889 C -173.31738986 257.69967738 -180.07134163 260.71075074 -186.875 263.625 C -187.70394775 263.98392334 -188.53289551 264.34284668 -189.38696289 264.71264648 C -194.74877309 267 -194.74877309 267 -197 267 C -196.26724968 260.7249342 -195.28855605 254.51552402 -194.22265625 248.2890625 C -194.05124619 247.2808847 -193.87983612 246.27270691 -193.70323181 245.23397827 C -193.34182646 243.11091816 -192.97955223 240.9880058 -192.61645508 238.86523438 C -192.06546314 235.64233223 -191.51788061 232.41886419 -190.97070312 229.1953125 C -190.61739168 227.12236102 -190.26388251 225.04944323 -189.91015625 222.9765625 C -189.74862564 222.02520416 -189.58709503 221.07384583 -189.42066956 220.09365845 C -188.50397344 214.74739788 -187.50788626 209.42618021 -186.41001892 204.11402893 C -185.49009821 199.37098196 -185.42987111 196.97786452 -187.90625 192.73046875 C -188.76171818 191.54285984 -189.62690024 190.36220743 -190.5 189.1875 C -211.24985198 159.59278396 -217.65207173 121.98192803 -211.47875977 86.60424805 C -204.46063619 51.39775583 -182.64109227 19.28604649 -152.95751953 -0.71826172 C -106.91179304 -30.86793297 -45.74483075 -31.47629126 0 0 Z" stroke-linecap="round"/>
</g>
		<g transform="matrix(1 0 0 1 24.7043 50)">
<path style="stroke: none; stroke-width: 1; stroke-dasharray: none; stroke-linecap: butt; stroke-dashoffset: 0; stroke-linejoin: miter; stroke-miterlimit: 4; is-custom-font: none; font-file-url: none; fill: rgb(71,48,123); fill-rule: nonzero; opacity: 1;" transform=" translate(95.2956, -133)" d="M 0 0 C 2.9931743 2.81633468 5.22595291 5.66730276 7.4375 9.125 C 10.3967611 13.6603294 13.48002804 18.0539563 16.69702148 22.40991211 C 36.08883048 48.73119629 48.50051008 76.3058239 48.3125 109.5625 C 48.31001251 110.26620728 48.30752502 110.96991455 48.30496216 111.69494629 C 48.09570006 150.05350347 33.53375915 182.49730317 7.125 210.1875 C -6.62348585 223.46190013 -23.24930949 233.15467715 -41 240 C -41.62422852 240.24234375 -42.24845703 240.4846875 -42.89160156 240.734375 C -72.58264085 251.92095181 -108.06073202 251.20065586 -137.1953125 238.8203125 C -143.09210133 237.09562496 -148.24112273 239.76657687 -153.58203125 242.2109375 C -154.30587509 242.53530792 -155.02971893 242.85967834 -155.77549744 243.19387817 C -158.12408072 244.24790174 -160.46822711 245.31142897 -162.8125 246.375 C -164.42771774 247.10167248 -166.04328008 247.82757945 -167.65917969 248.55273438 C -170.90036856 250.00762423 -174.1402723 251.46532017 -177.37939453 252.92480469 C -183.81919837 255.82214055 -190.28296312 258.66404334 -196.75 261.5 C -198.32744995 262.19295166 -198.32744995 262.19295166 -199.93676758 262.89990234 C -202.29086786 263.93397832 -204.64525952 264.96738293 -207 266 C -211.60616733 261.76335729 -214.98019231 256.96705075 -218.5 251.8125 C -222.206066 246.42511159 -225.92190329 241.06051357 -229.83984375 235.82421875 C -230.44441406 235.01170654 -231.04898438 234.19919434 -231.671875 233.36206055 C -232.82979313 231.8129928 -233.99747597 230.27116611 -235.17578125 228.73754883 C -235.69398438 228.04040771 -236.2121875 227.3432666 -236.74609375 226.625 C -237.20685303 226.01914062 -237.6676123 225.41328125 -238.14233398 224.7890625 C -239 223 -239 223 -238.78955078 221.01763916 C -238 219 -238 219 -236.36842346 217.85150146 C -235.66104538 217.54698059 -234.9536673 217.24245972 -234.22485352 216.92871094 C -233.42213516 216.57444031 -232.61941681 216.22016968 -231.79237366 215.85516357 C -230.91342941 215.48530334 -230.03448517 215.11544312 -229.12890625 214.734375 C -228.21858139 214.33728333 -227.30825653 213.94019165 -226.37034607 213.53106689 C -223.44026768 212.25662709 -220.50180508 211.0029923 -217.5625 209.75 C -215.6471871 208.92195789 -213.73246627 208.09254487 -211.81835938 207.26171875 C -208.97781469 206.02934112 -206.13619894 204.79999698 -203.28970337 203.5814209 C -198.76219952 201.64259898 -194.25554949 199.67386627 -189.78466797 197.60742188 C -188.96916977 197.23321106 -188.15367157 196.85900024 -187.3134613 196.47344971 C -185.7976885 195.77460615 -184.28597807 195.06685049 -182.7794342 194.34832764 C -177.92349649 192.11823452 -173.96056312 191.01663275 -168.7890625 192.734375 C -168.07492188 193.06953125 -167.36078125 193.4046875 -166.625 193.75 C -162.15452158 195.64758978 -157.69729122 197.00074611 -153 198.1875 C -151.081875 198.67283203 -151.081875 198.67283203 -149.125 199.16796875 C -129.83073114 203.37465629 -107.11765883 202.7410038 -88 198 C -87.03191406 197.7834375 -86.06382812 197.566875 -85.06640625 197.34375 C -60.30863375 191.30702173 -38.44222655 177.3366997 -21 159 C -20.35804688 158.34128906 -19.71609375 157.68257812 -19.0546875 157.00390625 C -5.12195453 142.22161639 3.65913132 124.88428613 9.875 105.6875 C 10.30462036 104.36383423 10.30462036 104.36383423 10.74291992 103.01342773 C 14.51494981 90.80793314 15.44125905 78.82186246 15.4375 66.125 C 15.4385675 65.3564267 15.43963501 64.58785339 15.44073486 63.79598999 C 15.3966263 41.72251951 10.1909238 21.59793038 0 2 C 0 1.34 0 0.68 0 0 Z" stroke-linecap="round"/>
</g>
		<g transform="matrix(1 0 0 1 8.8872 4.2523)">
<path style="stroke: none; stroke-width: 1; stroke-dasharray: none; stroke-linecap: butt; stroke-dashoffset: 0; stroke-linejoin: miter; stroke-miterlimit: 4; is-custom-font: none; font-file-url: none; fill: rgb(103,91,163); fill-rule: nonzero; opacity: 1;" transform=" translate(64.3629, -31.0648)" d="M 0 0 C 5.02931667 0.5536147 8.05600397 2.11850397 11.625 5.6875 C 12.75 7.8125 12.75 7.8125 12.8125 10.0625 C 11.19558431 14.24745825 8.60038304 17.37881073 5.75 20.8125 C 5.09773437 21.60011719 4.44546875 22.38773438 3.7734375 23.19921875 C -14.73824843 44.63911681 -42.18515045 58.39487251 -70.25 61.8125 C -74.98315258 62.0991729 -79.69652191 62.14667556 -84.4375 62.125 C -86.35224121 62.11762817 -86.35224121 62.11762817 -88.30566406 62.11010742 C -97.97673584 61.99041594 -106.86678087 61.18199978 -116.25 58.8125 C -116.98702148 58.63557617 -117.72404297 58.45865234 -118.48339844 58.27636719 C -134.55519134 54.36152996 -134.55519134 54.36152996 -140.25 47.8125 C -141.69866707 43.46649879 -141.75455583 39.35350246 -141.25 34.8125 C -139.8125 32.125 -139.8125 32.125 -137.25 30.8125 C -132.41098026 30.44784882 -128.2087992 31.71917772 -123.8125 33.625 C -102.71875519 42.36337987 -75.76653741 43.64997177 -54.25 35.8125 C -53.62673828 35.59819336 -53.00347656 35.38388672 -52.36132812 35.16308594 C -35.02292023 29.16535874 -21.09800877 19.35555649 -9.625 5.125 C -6.54349274 1.59527351 -4.74347811 0.15391817 0 0 Z" stroke-linecap="round"/>
</g>
		<g transform="matrix(1 0 0 1 -42.0538 -47.4643)">
<path style="stroke: none; stroke-width: 1; stroke-dasharray: none; stroke-linecap: butt; stroke-dashoffset: 0; stroke-linejoin: miter; stroke-miterlimit: 4; is-custom-font: none; font-file-url: none; fill: rgb(104,92,163); fill-rule: nonzero; opacity: 1;" transform=" translate(4.0538, -15.5357)" d="M 0 0 C 4.87929246 1.68898585 8.50059555 4.43759505 11 9 C 12.52582721 13.79038774 12.46760422 17.72585321 10.375 22.3125 C 8.06143126 26.34517884 5.16540155 28.91729923 1 31 C -3.9252115 31.54035594 -7.86941718 31.54435469 -12.375 29.375 C -17.29588696 24.92276894 -19.69733245 20.84308387 -20.1640625 14.2421875 C -19.79395012 9.18398494 -17.07801409 5.97534608 -13.375 2.625 C -8.8910622 -0.44295744 -5.33906361 -0.48700918 0 0 Z" stroke-linecap="round"/>
</g>
		<g transform="matrix(1 0 0 1 24.3945 -63.5104)">
<path style="stroke: none; stroke-width: 1; stroke-dasharray: none; stroke-linecap: butt; stroke-dashoffset: 0; stroke-linejoin: miter; stroke-miterlimit: 4; is-custom-font: none; font-file-url: none; fill: rgb(103,91,163); fill-rule: nonzero; opacity: 1;" transform=" translate(4.6054, -15.4896)" d="M 0 0 C 4.74440278 2.48359171 9.05953724 5.90628526 11 11 C 11.71369295 17.2193243 10.78850169 21.91868616 7 27 C 3.43442956 30.36695776 -0.23552121 31.26772433 -5.0625 31.5 C -11.15968857 31.22243451 -14.28124389 28.85444738 -18.375 24.4375 C -20.67955227 19.56248558 -20.76643944 15.3018646 -20 10 C -17.97924679 5.55434293 -15.38954333 2.92453467 -10.984375 0.703125 C -7.22248925 -0.62982664 -3.89858245 -0.88938502 0 0 Z" stroke-linecap="round"/>
</g>
</g>
</g>
</svg>